<mxfile host="Electron" modified="2023-04-02T10:39:55.825Z" agent="Mozilla/5.0 (Windows NT 10.0; Win64; x64) AppleWebKit/537.36 (KHTML, like Gecko) draw.io/21.1.2 Chrome/106.0.5249.199 Electron/21.4.3 Safari/537.36" etag="ABfl2m1-Dtp-5dBZDOl4" version="21.1.2" type="device">
  <diagram name="Страница 1" id="1Sl_nZ1g1N8PrJDqj42g">
    <mxGraphModel dx="3453" dy="2347" grid="1" gridSize="10" guides="1" tooltips="1" connect="1" arrows="1" fold="1" page="1" pageScale="1" pageWidth="827" pageHeight="1169" math="0" shadow="0">
      <root>
        <mxCell id="0" />
        <mxCell id="1" parent="0" />
        <mxCell id="bT7lZ-O7QSs4i1S0B8-C-22" style="edgeStyle=none;curved=1;rounded=1;orthogonalLoop=1;jettySize=auto;html=1;exitX=0.5;exitY=1;exitDx=0;exitDy=0;entryX=1;entryY=0.5;entryDx=0;entryDy=0;strokeWidth=1;fontFamily=Lucida Console;fontSize=12;fontColor=#F0F0F0;startSize=8;endSize=8;" parent="1" edge="1">
          <mxGeometry relative="1" as="geometry">
            <Array as="points">
              <mxPoint x="-140" y="1090" />
              <mxPoint x="-230" y="500" />
            </Array>
            <mxPoint x="-380" y="920" as="sourcePoint" />
          </mxGeometry>
        </mxCell>
        <mxCell id="bT7lZ-O7QSs4i1S0B8-C-62" style="edgeStyle=none;curved=1;rounded=0;orthogonalLoop=1;jettySize=auto;html=1;exitX=0.5;exitY=1;exitDx=0;exitDy=0;fontSize=12;startSize=8;endSize=8;" parent="1" source="bT7lZ-O7QSs4i1S0B8-C-57" target="bT7lZ-O7QSs4i1S0B8-C-59" edge="1">
          <mxGeometry relative="1" as="geometry" />
        </mxCell>
        <mxCell id="bT7lZ-O7QSs4i1S0B8-C-57" value="" style="verticalLabelPosition=bottom;verticalAlign=top;html=1;shape=process;whiteSpace=wrap;rounded=1;size=0.14;arcSize=6;strokeWidth=1;fontFamily=Lucida Console;fontSize=16;fillColor=#f8cecc;strokeColor=#b85450;" parent="1" vertex="1">
          <mxGeometry x="325" y="200" width="140" height="60" as="geometry" />
        </mxCell>
        <mxCell id="bT7lZ-O7QSs4i1S0B8-C-58" value="CompAndSwap" style="text;strokeColor=none;fillColor=none;html=1;align=center;verticalAlign=middle;whiteSpace=wrap;rounded=0;fontSize=16;fontFamily=Lucida Console;fontColor=#000000;" parent="1" vertex="1">
          <mxGeometry x="365" y="215" width="60" height="30" as="geometry" />
        </mxCell>
        <mxCell id="bT7lZ-O7QSs4i1S0B8-C-64" style="edgeStyle=none;curved=1;rounded=0;orthogonalLoop=1;jettySize=auto;html=1;exitX=0.5;exitY=1;exitDx=0;exitDy=0;exitPerimeter=0;fontSize=12;startSize=8;endSize=8;" parent="1" source="bT7lZ-O7QSs4i1S0B8-C-59" target="bT7lZ-O7QSs4i1S0B8-C-63" edge="1">
          <mxGeometry relative="1" as="geometry" />
        </mxCell>
        <mxCell id="bT7lZ-O7QSs4i1S0B8-C-59" value="Start" style="strokeWidth=1;html=1;shape=mxgraph.flowchart.terminator;whiteSpace=wrap;fontSize=16;rounded=1;fillColor=#ffe6cc;strokeColor=#d79b00;" parent="1" vertex="1">
          <mxGeometry x="325" y="300" width="140" height="60" as="geometry" />
        </mxCell>
        <mxCell id="bT7lZ-O7QSs4i1S0B8-C-66" style="edgeStyle=none;curved=1;rounded=0;orthogonalLoop=1;jettySize=auto;html=1;exitX=0.5;exitY=1;exitDx=0;exitDy=0;fontSize=12;startSize=8;endSize=8;" parent="1" source="bT7lZ-O7QSs4i1S0B8-C-63" target="bT7lZ-O7QSs4i1S0B8-C-65" edge="1">
          <mxGeometry relative="1" as="geometry" />
        </mxCell>
        <mxCell id="bT7lZ-O7QSs4i1S0B8-C-63" value="Input&lt;br&gt;arr, ind1,&lt;br&gt;ind2, dirctn" style="shape=parallelogram;html=1;strokeWidth=1;perimeter=parallelogramPerimeter;whiteSpace=wrap;rounded=1;arcSize=12;size=0.23;fontFamily=Lucida Console;fontSize=16;fillColor=#f5f5f5;strokeColor=#666666;fontColor=#333333;" parent="1" vertex="1">
          <mxGeometry x="297.5" y="400" width="195" height="60" as="geometry" />
        </mxCell>
        <mxCell id="bT7lZ-O7QSs4i1S0B8-C-68" value="YES" style="edgeStyle=none;curved=1;rounded=0;orthogonalLoop=1;jettySize=auto;html=1;exitX=1;exitY=0.5;exitDx=0;exitDy=0;exitPerimeter=0;fontSize=12;startSize=8;endSize=8;fillColor=#dae8fc;strokeColor=#6c8ebf;fontColor=#301AF0;" parent="1" source="bT7lZ-O7QSs4i1S0B8-C-65" target="bT7lZ-O7QSs4i1S0B8-C-67" edge="1">
          <mxGeometry relative="1" as="geometry" />
        </mxCell>
        <mxCell id="bT7lZ-O7QSs4i1S0B8-C-70" value="NO" style="edgeStyle=none;curved=1;rounded=0;orthogonalLoop=1;jettySize=auto;html=1;exitX=0.5;exitY=1;exitDx=0;exitDy=0;exitPerimeter=0;fontSize=12;startSize=8;endSize=8;fontColor=#F02B2B;fillColor=#f8cecc;strokeColor=#b85450;" parent="1" source="bT7lZ-O7QSs4i1S0B8-C-65" target="bT7lZ-O7QSs4i1S0B8-C-69" edge="1">
          <mxGeometry relative="1" as="geometry" />
        </mxCell>
        <mxCell id="bT7lZ-O7QSs4i1S0B8-C-65" value="&lt;div&gt;(dirctn==1&lt;/div&gt;&lt;div&gt;&amp;amp;&amp;amp;&lt;/div&gt;&lt;div&gt;arr[ind1]&lt;span style=&quot;background-color: initial;&quot;&gt;&amp;gt;&lt;/span&gt;&lt;span style=&quot;background-color: initial;&quot;&gt;array[ind2])&lt;/span&gt;&lt;/div&gt;&lt;div&gt;&lt;span style=&quot;background-color: initial;&quot;&gt;||&lt;/span&gt;&lt;/div&gt;&lt;div&gt;&lt;span style=&quot;background-color: initial;&quot;&gt;(&lt;/span&gt;&lt;span style=&quot;background-color: initial;&quot;&gt;dirctn==0&lt;/span&gt;&lt;/div&gt;&lt;div&gt;&lt;span style=&quot;background-color: initial;&quot;&gt;&amp;amp;&amp;amp;&lt;/span&gt;&lt;/div&gt;&lt;div&gt;&lt;span style=&quot;background-color: initial;&quot;&gt;arr[ind1&amp;lt;arr[ind2]&lt;/span&gt;&lt;span style=&quot;background-color: initial;&quot;&gt;)&lt;/span&gt;&lt;/div&gt;&lt;div&gt;&lt;br&gt;&lt;/div&gt;" style="strokeWidth=1;html=1;shape=mxgraph.flowchart.decision;whiteSpace=wrap;rounded=1;fontSize=16;fontFamily=Lucida Console;fillColor=#d5e8d4;strokeColor=#82b366;" parent="1" vertex="1">
          <mxGeometry x="210" y="500" width="370" height="210" as="geometry" />
        </mxCell>
        <mxCell id="bT7lZ-O7QSs4i1S0B8-C-71" style="edgeStyle=none;curved=1;rounded=0;orthogonalLoop=1;jettySize=auto;html=1;exitX=0.5;exitY=1;exitDx=0;exitDy=0;entryX=1;entryY=0.5;entryDx=0;entryDy=0;entryPerimeter=0;fontSize=12;startSize=8;endSize=8;" parent="1" source="bT7lZ-O7QSs4i1S0B8-C-67" target="bT7lZ-O7QSs4i1S0B8-C-69" edge="1">
          <mxGeometry relative="1" as="geometry">
            <Array as="points">
              <mxPoint x="775" y="850" />
            </Array>
          </mxGeometry>
        </mxCell>
        <mxCell id="bT7lZ-O7QSs4i1S0B8-C-67" value="&lt;div&gt;&amp;nbsp; &amp;nbsp; &amp;nbsp; &amp;nbsp; arr[ind1],arr[ind2]&lt;/div&gt;&lt;div&gt;=arr[ind2],arr[ind1]&lt;/div&gt;&lt;div&gt;&lt;br&gt;&lt;/div&gt;" style="rounded=1;whiteSpace=wrap;html=1;absoluteArcSize=1;arcSize=14;strokeWidth=1;fontFamily=Lucida Console;fontSize=16;fillColor=#f5f5f5;strokeColor=#666666;fontColor=#333333;" parent="1" vertex="1">
          <mxGeometry x="685" y="565" width="200" height="80" as="geometry" />
        </mxCell>
        <mxCell id="bT7lZ-O7QSs4i1S0B8-C-69" value="END" style="strokeWidth=1;html=1;shape=mxgraph.flowchart.terminator;whiteSpace=wrap;fontSize=16;rounded=1;fillColor=#ffe6cc;strokeColor=#d79b00;" parent="1" vertex="1">
          <mxGeometry x="325" y="795" width="140" height="60" as="geometry" />
        </mxCell>
        <mxCell id="bT7lZ-O7QSs4i1S0B8-C-75" style="edgeStyle=none;curved=1;rounded=0;orthogonalLoop=1;jettySize=auto;html=1;exitX=0.5;exitY=1;exitDx=0;exitDy=0;fontSize=12;startSize=8;endSize=8;" parent="1" source="bT7lZ-O7QSs4i1S0B8-C-72" target="bT7lZ-O7QSs4i1S0B8-C-74" edge="1">
          <mxGeometry relative="1" as="geometry" />
        </mxCell>
        <mxCell id="bT7lZ-O7QSs4i1S0B8-C-72" value="" style="verticalLabelPosition=bottom;verticalAlign=top;html=1;shape=process;whiteSpace=wrap;rounded=1;size=0.14;arcSize=6;strokeWidth=1;fontFamily=Lucida Console;fontSize=16;fillColor=#f8cecc;strokeColor=#b85450;" parent="1" vertex="1">
          <mxGeometry x="968.75" y="200" width="140" height="60" as="geometry" />
        </mxCell>
        <mxCell id="bT7lZ-O7QSs4i1S0B8-C-73" value="BitMerge" style="text;strokeColor=none;fillColor=none;html=1;align=center;verticalAlign=middle;whiteSpace=wrap;rounded=0;fontSize=16;fontFamily=Lucida Console;fontColor=#000000;" parent="1" vertex="1">
          <mxGeometry x="1008.75" y="215" width="60" height="30" as="geometry" />
        </mxCell>
        <mxCell id="bT7lZ-O7QSs4i1S0B8-C-77" style="edgeStyle=none;curved=1;rounded=0;orthogonalLoop=1;jettySize=auto;html=1;exitX=0.5;exitY=1;exitDx=0;exitDy=0;exitPerimeter=0;fontSize=12;startSize=8;endSize=8;" parent="1" source="bT7lZ-O7QSs4i1S0B8-C-74" target="bT7lZ-O7QSs4i1S0B8-C-76" edge="1">
          <mxGeometry relative="1" as="geometry" />
        </mxCell>
        <mxCell id="bT7lZ-O7QSs4i1S0B8-C-74" value="Start" style="strokeWidth=1;html=1;shape=mxgraph.flowchart.terminator;whiteSpace=wrap;fontSize=16;rounded=1;fillColor=#ffe6cc;strokeColor=#d79b00;" parent="1" vertex="1">
          <mxGeometry x="968.75" y="300" width="140" height="60" as="geometry" />
        </mxCell>
        <mxCell id="bT7lZ-O7QSs4i1S0B8-C-79" style="edgeStyle=none;curved=1;rounded=0;orthogonalLoop=1;jettySize=auto;html=1;exitX=0.5;exitY=1;exitDx=0;exitDy=0;fontSize=12;startSize=8;endSize=8;" parent="1" source="bT7lZ-O7QSs4i1S0B8-C-76" target="bT7lZ-O7QSs4i1S0B8-C-78" edge="1">
          <mxGeometry relative="1" as="geometry" />
        </mxCell>
        <mxCell id="bT7lZ-O7QSs4i1S0B8-C-76" value="Input&lt;br&gt;arr, low,&lt;br&gt;lenght, dirctn" style="shape=parallelogram;html=1;strokeWidth=1;perimeter=parallelogramPerimeter;whiteSpace=wrap;rounded=1;arcSize=12;size=0.23;fontFamily=Lucida Console;fontSize=16;fillColor=#f5f5f5;strokeColor=#666666;fontColor=#333333;" parent="1" vertex="1">
          <mxGeometry x="925" y="400" width="227.5" height="60" as="geometry" />
        </mxCell>
        <mxCell id="bT7lZ-O7QSs4i1S0B8-C-81" value="YES" style="edgeStyle=none;curved=1;rounded=0;orthogonalLoop=1;jettySize=auto;html=1;exitX=1;exitY=0.5;exitDx=0;exitDy=0;exitPerimeter=0;fontSize=12;startSize=8;endSize=8;fillColor=#dae8fc;strokeColor=#6c8ebf;fontColor=#0038F0;" parent="1" source="bT7lZ-O7QSs4i1S0B8-C-78" target="bT7lZ-O7QSs4i1S0B8-C-80" edge="1">
          <mxGeometry relative="1" as="geometry" />
        </mxCell>
        <mxCell id="bT7lZ-O7QSs4i1S0B8-C-96" value="NO" style="edgeStyle=none;curved=1;rounded=0;orthogonalLoop=1;jettySize=auto;html=1;exitX=0.5;exitY=1;exitDx=0;exitDy=0;exitPerimeter=0;fontSize=12;startSize=8;endSize=8;fillColor=#f8cecc;strokeColor=#b85450;fontColor=#F02B2B;" parent="1" source="bT7lZ-O7QSs4i1S0B8-C-78" target="bT7lZ-O7QSs4i1S0B8-C-95" edge="1">
          <mxGeometry relative="1" as="geometry" />
        </mxCell>
        <mxCell id="bT7lZ-O7QSs4i1S0B8-C-78" value="&lt;div&gt;lenght &amp;gt; 1&lt;/div&gt;" style="strokeWidth=1;html=1;shape=mxgraph.flowchart.decision;whiteSpace=wrap;rounded=1;fontSize=16;fontFamily=Lucida Console;fillColor=#d5e8d4;strokeColor=#82b366;" parent="1" vertex="1">
          <mxGeometry x="971.25" y="500" width="135" height="60" as="geometry" />
        </mxCell>
        <mxCell id="bT7lZ-O7QSs4i1S0B8-C-83" style="edgeStyle=none;curved=1;rounded=0;orthogonalLoop=1;jettySize=auto;html=1;fontSize=12;startSize=8;endSize=8;" parent="1" source="bT7lZ-O7QSs4i1S0B8-C-80" target="bT7lZ-O7QSs4i1S0B8-C-82" edge="1">
          <mxGeometry relative="1" as="geometry" />
        </mxCell>
        <mxCell id="bT7lZ-O7QSs4i1S0B8-C-80" value="&lt;div&gt;&lt;div&gt;mid=int(length/2)&lt;/div&gt;&lt;/div&gt;" style="rounded=1;whiteSpace=wrap;html=1;absoluteArcSize=1;arcSize=14;strokeWidth=1;fontFamily=Lucida Console;fontSize=16;fillColor=#f5f5f5;strokeColor=#666666;fontColor=#333333;align=center;" parent="1" vertex="1">
          <mxGeometry x="1198.75" y="505" width="170" height="50" as="geometry" />
        </mxCell>
        <mxCell id="bT7lZ-O7QSs4i1S0B8-C-85" style="edgeStyle=none;curved=1;rounded=0;orthogonalLoop=1;jettySize=auto;html=1;exitX=0.5;exitY=1;exitDx=0;exitDy=0;fontSize=12;startSize=8;endSize=8;" parent="1" source="bT7lZ-O7QSs4i1S0B8-C-82" target="bT7lZ-O7QSs4i1S0B8-C-84" edge="1">
          <mxGeometry relative="1" as="geometry" />
        </mxCell>
        <mxCell id="bT7lZ-O7QSs4i1S0B8-C-82" value="&lt;div&gt;&lt;div&gt;c = mid&lt;/div&gt;&lt;/div&gt;" style="rounded=1;whiteSpace=wrap;html=1;absoluteArcSize=1;arcSize=14;strokeWidth=1;fontFamily=Lucida Console;fontSize=16;fillColor=#f5f5f5;strokeColor=#666666;fontColor=#333333;align=center;" parent="1" vertex="1">
          <mxGeometry x="1233.75" y="590" width="100" height="50" as="geometry" />
        </mxCell>
        <mxCell id="bT7lZ-O7QSs4i1S0B8-C-89" value="YES" style="edgeStyle=none;curved=1;rounded=0;orthogonalLoop=1;jettySize=auto;html=1;exitX=1;exitY=0.5;exitDx=0;exitDy=0;exitPerimeter=0;fontSize=12;startSize=8;endSize=8;fillColor=#dae8fc;strokeColor=#6c8ebf;fontColor=#110AF0;" parent="1" source="bT7lZ-O7QSs4i1S0B8-C-84" target="bT7lZ-O7QSs4i1S0B8-C-86" edge="1">
          <mxGeometry relative="1" as="geometry" />
        </mxCell>
        <mxCell id="bT7lZ-O7QSs4i1S0B8-C-92" value="NO" style="edgeStyle=none;curved=1;rounded=0;orthogonalLoop=1;jettySize=auto;html=1;exitX=0.5;exitY=1;exitDx=0;exitDy=0;exitPerimeter=0;fontSize=12;startSize=8;endSize=8;fontColor=#F02B2B;fillColor=#f8cecc;strokeColor=#b85450;" parent="1" source="bT7lZ-O7QSs4i1S0B8-C-84" target="bT7lZ-O7QSs4i1S0B8-C-91" edge="1">
          <mxGeometry relative="1" as="geometry" />
        </mxCell>
        <mxCell id="bT7lZ-O7QSs4i1S0B8-C-84" value="&lt;div&gt;c &amp;gt; 1&lt;/div&gt;" style="strokeWidth=1;html=1;shape=mxgraph.flowchart.decision;whiteSpace=wrap;rounded=1;fontSize=16;fontFamily=Lucida Console;fillColor=#d5e8d4;strokeColor=#82b366;" parent="1" vertex="1">
          <mxGeometry x="1216.25" y="670" width="135" height="60" as="geometry" />
        </mxCell>
        <mxCell id="bT7lZ-O7QSs4i1S0B8-C-88" style="edgeStyle=none;curved=1;rounded=0;orthogonalLoop=1;jettySize=auto;html=1;exitX=0.5;exitY=0;exitDx=0;exitDy=0;entryX=0.5;entryY=1;entryDx=0;entryDy=0;fontSize=12;startSize=8;endSize=8;" parent="1" source="bT7lZ-O7QSs4i1S0B8-C-86" target="bT7lZ-O7QSs4i1S0B8-C-87" edge="1">
          <mxGeometry relative="1" as="geometry" />
        </mxCell>
        <mxCell id="bT7lZ-O7QSs4i1S0B8-C-86" value="&lt;div&gt;CompAndSwap(array, i, i+mid, dirctn)&lt;/div&gt;" style="rounded=1;whiteSpace=wrap;html=1;absoluteArcSize=1;arcSize=14;strokeWidth=1;fontFamily=Lucida Console;fontSize=16;fillColor=#f5f5f5;strokeColor=#666666;fontColor=#333333;align=center;" parent="1" vertex="1">
          <mxGeometry x="1445" y="667.5" width="170" height="65" as="geometry" />
        </mxCell>
        <mxCell id="bT7lZ-O7QSs4i1S0B8-C-90" style="edgeStyle=none;curved=1;rounded=0;orthogonalLoop=1;jettySize=auto;html=1;exitX=0;exitY=0.5;exitDx=0;exitDy=0;entryX=0.5;entryY=0;entryDx=0;entryDy=0;entryPerimeter=0;fontSize=12;startSize=8;endSize=8;" parent="1" source="bT7lZ-O7QSs4i1S0B8-C-87" target="bT7lZ-O7QSs4i1S0B8-C-84" edge="1">
          <mxGeometry relative="1" as="geometry">
            <Array as="points">
              <mxPoint x="1375" y="620" />
            </Array>
          </mxGeometry>
        </mxCell>
        <mxCell id="bT7lZ-O7QSs4i1S0B8-C-87" value="&lt;div&gt;c=c-1&lt;/div&gt;" style="rounded=1;whiteSpace=wrap;html=1;absoluteArcSize=1;arcSize=14;strokeWidth=1;fontFamily=Lucida Console;fontSize=16;fillColor=#f5f5f5;strokeColor=#666666;fontColor=#333333;align=center;" parent="1" vertex="1">
          <mxGeometry x="1495" y="590" width="70" height="37.5" as="geometry" />
        </mxCell>
        <mxCell id="bT7lZ-O7QSs4i1S0B8-C-94" style="edgeStyle=none;curved=1;rounded=0;orthogonalLoop=1;jettySize=auto;html=1;exitX=0.5;exitY=1;exitDx=0;exitDy=0;fontSize=12;startSize=8;endSize=8;" parent="1" source="bT7lZ-O7QSs4i1S0B8-C-91" target="bT7lZ-O7QSs4i1S0B8-C-93" edge="1">
          <mxGeometry relative="1" as="geometry" />
        </mxCell>
        <mxCell id="bT7lZ-O7QSs4i1S0B8-C-91" value="&lt;div&gt;BitMerge(arr, low, mid, dirctn)&lt;/div&gt;" style="rounded=1;whiteSpace=wrap;html=1;absoluteArcSize=1;arcSize=14;strokeWidth=1;fontFamily=Lucida Console;fontSize=16;fillColor=#f5f5f5;strokeColor=#666666;fontColor=#333333;align=center;" parent="1" vertex="1">
          <mxGeometry x="1198.75" y="780" width="170" height="65" as="geometry" />
        </mxCell>
        <mxCell id="bT7lZ-O7QSs4i1S0B8-C-97" style="edgeStyle=none;curved=1;rounded=0;orthogonalLoop=1;jettySize=auto;html=1;exitX=0;exitY=0.5;exitDx=0;exitDy=0;entryX=1;entryY=0.5;entryDx=0;entryDy=0;entryPerimeter=0;fontSize=12;startSize=8;endSize=8;" parent="1" source="bT7lZ-O7QSs4i1S0B8-C-93" target="bT7lZ-O7QSs4i1S0B8-C-95" edge="1">
          <mxGeometry relative="1" as="geometry" />
        </mxCell>
        <mxCell id="bT7lZ-O7QSs4i1S0B8-C-93" value="&lt;div&gt;BitMerge(arr, low+mid, mid, dirctn)&lt;/div&gt;" style="rounded=1;whiteSpace=wrap;html=1;absoluteArcSize=1;arcSize=14;strokeWidth=1;fontFamily=Lucida Console;fontSize=16;fillColor=#f5f5f5;strokeColor=#666666;fontColor=#333333;align=center;" parent="1" vertex="1">
          <mxGeometry x="1198.75" y="880" width="170" height="65" as="geometry" />
        </mxCell>
        <mxCell id="bT7lZ-O7QSs4i1S0B8-C-95" value="END" style="strokeWidth=1;html=1;shape=mxgraph.flowchart.terminator;whiteSpace=wrap;fontSize=16;rounded=1;fillColor=#ffe6cc;strokeColor=#d79b00;" parent="1" vertex="1">
          <mxGeometry x="968.75" y="882.5" width="140" height="60" as="geometry" />
        </mxCell>
        <mxCell id="bT7lZ-O7QSs4i1S0B8-C-103" style="edgeStyle=none;curved=1;rounded=0;orthogonalLoop=1;jettySize=auto;html=1;exitX=0.5;exitY=1;exitDx=0;exitDy=0;fontSize=12;startSize=8;endSize=8;" parent="1" source="bT7lZ-O7QSs4i1S0B8-C-98" target="bT7lZ-O7QSs4i1S0B8-C-101" edge="1">
          <mxGeometry relative="1" as="geometry" />
        </mxCell>
        <mxCell id="bT7lZ-O7QSs4i1S0B8-C-98" value="" style="verticalLabelPosition=bottom;verticalAlign=top;html=1;shape=process;whiteSpace=wrap;rounded=1;size=0.14;arcSize=6;strokeWidth=1;fontFamily=Lucida Console;fontSize=16;fillColor=#f8cecc;strokeColor=#b85450;" parent="1" vertex="1">
          <mxGeometry x="1845" y="210" width="140" height="60" as="geometry" />
        </mxCell>
        <mxCell id="bT7lZ-O7QSs4i1S0B8-C-99" value="BatchSort" style="text;strokeColor=none;fillColor=none;html=1;align=center;verticalAlign=middle;whiteSpace=wrap;rounded=0;fontSize=16;fontFamily=Lucida Console;fontColor=#000000;" parent="1" vertex="1">
          <mxGeometry x="1885" y="225" width="60" height="30" as="geometry" />
        </mxCell>
        <mxCell id="bT7lZ-O7QSs4i1S0B8-C-100" style="edgeStyle=none;curved=1;rounded=0;orthogonalLoop=1;jettySize=auto;html=1;exitX=0.5;exitY=1;exitDx=0;exitDy=0;exitPerimeter=0;fontSize=12;startSize=8;endSize=8;" parent="1" source="bT7lZ-O7QSs4i1S0B8-C-101" target="bT7lZ-O7QSs4i1S0B8-C-102" edge="1">
          <mxGeometry relative="1" as="geometry" />
        </mxCell>
        <mxCell id="bT7lZ-O7QSs4i1S0B8-C-101" value="Start" style="strokeWidth=1;html=1;shape=mxgraph.flowchart.terminator;whiteSpace=wrap;fontSize=16;rounded=1;fillColor=#ffe6cc;strokeColor=#d79b00;" parent="1" vertex="1">
          <mxGeometry x="1845" y="300" width="140" height="60" as="geometry" />
        </mxCell>
        <mxCell id="bT7lZ-O7QSs4i1S0B8-C-107" style="edgeStyle=none;curved=1;rounded=0;orthogonalLoop=1;jettySize=auto;html=1;exitX=0.5;exitY=1;exitDx=0;exitDy=0;fontSize=12;startSize=8;endSize=8;" parent="1" source="bT7lZ-O7QSs4i1S0B8-C-102" target="bT7lZ-O7QSs4i1S0B8-C-104" edge="1">
          <mxGeometry relative="1" as="geometry" />
        </mxCell>
        <mxCell id="bT7lZ-O7QSs4i1S0B8-C-102" value="Input&lt;br&gt;arr, low,&lt;br&gt;lenght, dirctn" style="shape=parallelogram;html=1;strokeWidth=1;perimeter=parallelogramPerimeter;whiteSpace=wrap;rounded=1;arcSize=12;size=0.23;fontFamily=Lucida Console;fontSize=16;fillColor=#f5f5f5;strokeColor=#666666;fontColor=#333333;" parent="1" vertex="1">
          <mxGeometry x="1801.25" y="400" width="227.5" height="60" as="geometry" />
        </mxCell>
        <mxCell id="bT7lZ-O7QSs4i1S0B8-C-106" value="YES" style="edgeStyle=none;curved=1;rounded=0;orthogonalLoop=1;jettySize=auto;html=1;exitX=1;exitY=0.5;exitDx=0;exitDy=0;exitPerimeter=0;entryX=0;entryY=0.5;entryDx=0;entryDy=0;fontSize=12;startSize=8;endSize=8;fillColor=#dae8fc;strokeColor=#6c8ebf;fontColor=#301AF0;" parent="1" source="bT7lZ-O7QSs4i1S0B8-C-104" target="bT7lZ-O7QSs4i1S0B8-C-105" edge="1">
          <mxGeometry relative="1" as="geometry" />
        </mxCell>
        <mxCell id="bT7lZ-O7QSs4i1S0B8-C-115" value="NO" style="edgeStyle=none;curved=1;rounded=0;orthogonalLoop=1;jettySize=auto;html=1;exitX=0.5;exitY=1;exitDx=0;exitDy=0;exitPerimeter=0;fontSize=12;startSize=8;endSize=8;fontColor=#F02B2B;fillColor=#f8cecc;strokeColor=#b85450;" parent="1" source="bT7lZ-O7QSs4i1S0B8-C-104" target="bT7lZ-O7QSs4i1S0B8-C-114" edge="1">
          <mxGeometry relative="1" as="geometry" />
        </mxCell>
        <mxCell id="bT7lZ-O7QSs4i1S0B8-C-104" value="&lt;div&gt;lenght &amp;gt; 1&lt;/div&gt;" style="strokeWidth=1;html=1;shape=mxgraph.flowchart.decision;whiteSpace=wrap;rounded=1;fontSize=16;fontFamily=Lucida Console;fillColor=#d5e8d4;strokeColor=#82b366;" parent="1" vertex="1">
          <mxGeometry x="1847.5" y="500" width="135" height="60" as="geometry" />
        </mxCell>
        <mxCell id="bT7lZ-O7QSs4i1S0B8-C-109" style="edgeStyle=none;curved=1;rounded=0;orthogonalLoop=1;jettySize=auto;html=1;exitX=0.5;exitY=1;exitDx=0;exitDy=0;fontSize=12;startSize=8;endSize=8;" parent="1" source="bT7lZ-O7QSs4i1S0B8-C-105" target="bT7lZ-O7QSs4i1S0B8-C-108" edge="1">
          <mxGeometry relative="1" as="geometry" />
        </mxCell>
        <mxCell id="bT7lZ-O7QSs4i1S0B8-C-105" value="&lt;div&gt;&lt;div&gt;mid=int(length/2)&lt;/div&gt;&lt;/div&gt;" style="rounded=1;whiteSpace=wrap;html=1;absoluteArcSize=1;arcSize=14;strokeWidth=1;fontFamily=Lucida Console;fontSize=16;fillColor=#f5f5f5;strokeColor=#666666;fontColor=#333333;align=center;" parent="1" vertex="1">
          <mxGeometry x="2075" y="505" width="170" height="50" as="geometry" />
        </mxCell>
        <mxCell id="bT7lZ-O7QSs4i1S0B8-C-112" style="edgeStyle=none;curved=1;rounded=0;orthogonalLoop=1;jettySize=auto;html=1;exitX=0.5;exitY=1;exitDx=0;exitDy=0;fontSize=12;startSize=8;endSize=8;" parent="1" source="bT7lZ-O7QSs4i1S0B8-C-108" target="bT7lZ-O7QSs4i1S0B8-C-110" edge="1">
          <mxGeometry relative="1" as="geometry" />
        </mxCell>
        <mxCell id="bT7lZ-O7QSs4i1S0B8-C-108" value="&lt;div&gt;&amp;nbsp;BatchSort(arr, low, mid, 1)&lt;/div&gt;" style="rounded=1;whiteSpace=wrap;html=1;absoluteArcSize=1;arcSize=14;strokeWidth=1;fontFamily=Lucida Console;fontSize=16;fillColor=#f5f5f5;strokeColor=#666666;fontColor=#333333;align=center;" parent="1" vertex="1">
          <mxGeometry x="2075" y="583.75" width="170" height="50" as="geometry" />
        </mxCell>
        <mxCell id="bT7lZ-O7QSs4i1S0B8-C-113" style="edgeStyle=none;curved=1;rounded=0;orthogonalLoop=1;jettySize=auto;html=1;exitX=0.5;exitY=1;exitDx=0;exitDy=0;fontSize=12;startSize=8;endSize=8;" parent="1" source="bT7lZ-O7QSs4i1S0B8-C-110" target="bT7lZ-O7QSs4i1S0B8-C-111" edge="1">
          <mxGeometry relative="1" as="geometry" />
        </mxCell>
        <mxCell id="bT7lZ-O7QSs4i1S0B8-C-110" value="&lt;div&gt;&amp;nbsp;BatchSort(arr, low+mid, mid, 0)&lt;/div&gt;" style="rounded=1;whiteSpace=wrap;html=1;absoluteArcSize=1;arcSize=14;strokeWidth=1;fontFamily=Lucida Console;fontSize=16;fillColor=#f5f5f5;strokeColor=#666666;fontColor=#333333;align=center;" parent="1" vertex="1">
          <mxGeometry x="2075" y="660" width="170" height="50" as="geometry" />
        </mxCell>
        <mxCell id="bT7lZ-O7QSs4i1S0B8-C-116" style="edgeStyle=none;curved=1;rounded=0;orthogonalLoop=1;jettySize=auto;html=1;exitX=0;exitY=0.5;exitDx=0;exitDy=0;fontSize=12;startSize=8;endSize=8;" parent="1" source="bT7lZ-O7QSs4i1S0B8-C-111" target="bT7lZ-O7QSs4i1S0B8-C-114" edge="1">
          <mxGeometry relative="1" as="geometry" />
        </mxCell>
        <mxCell id="bT7lZ-O7QSs4i1S0B8-C-111" value="&lt;div&gt;&amp;nbsp;BatchSort(arr, low, lenght, dirctn)&lt;/div&gt;" style="rounded=1;whiteSpace=wrap;html=1;absoluteArcSize=1;arcSize=14;strokeWidth=1;fontFamily=Lucida Console;fontSize=16;fillColor=#f5f5f5;strokeColor=#666666;fontColor=#333333;align=center;" parent="1" vertex="1">
          <mxGeometry x="2075" y="745" width="170" height="60" as="geometry" />
        </mxCell>
        <mxCell id="bT7lZ-O7QSs4i1S0B8-C-114" value="END" style="strokeWidth=1;html=1;shape=mxgraph.flowchart.terminator;whiteSpace=wrap;fontSize=16;rounded=1;fillColor=#ffe6cc;strokeColor=#d79b00;" parent="1" vertex="1">
          <mxGeometry x="1845" y="745" width="140" height="60" as="geometry" />
        </mxCell>
      </root>
    </mxGraphModel>
  </diagram>
</mxfile>
